<mxfile host="app.diagrams.net" modified="2024-07-02T07:18:56.707Z" agent="Mozilla/5.0 (Macintosh; Intel Mac OS X 10_15_7) AppleWebKit/537.36 (KHTML, like Gecko) Chrome/126.0.0.0 Safari/537.36" version="24.6.4" etag="WunsIWrdx5nDJRLmsKRB" type="github">
  <diagram name="Seite-1" id="iQp57rr7BnhodMONBPUl">
    <mxGraphModel>
      <root>
        <mxCell id="0" />
        <mxCell id="1" parent="0" />
      </root>
    </mxGraphModel>
  </diagram>
</mxfile>
